<?xml version="1.0" encoding="iso-8859-1"?>
<!-- Generator: Adobe Illustrator 19.0.0, SVG Export Plug-In . SVG Version: 6.00 Build 0)  -->
<svg version="1.1" id="Capa_1" xmlns="http://www.w3.org/2000/svg" xmlns:xlink="http://www.w3.org/1999/xlink" x="0px" y="0px"
	 viewBox="0 0 51.807 51.807" style="enable-background:new 0 0 51.807 51.807;" xml:space="preserve">
<g>
	<g>
		<path d="M48.881,24.904c-0.553,0-1,0.447-1,1c0,12.131-9.869,22-22,22c-8.611,0-16.304-4.944-19.919-12.677l5.194,2.312
			c0.506,0.229,1.097-0.002,1.319-0.507c0.225-0.504-0.002-1.095-0.507-1.319L4.66,32.458c-0.503-0.228-1.096,0.002-1.319,0.507
			l-3.254,7.309c-0.225,0.504,0.002,1.095,0.507,1.319c0.132,0.06,0.269,0.087,0.405,0.087c0.384,0,0.749-0.221,0.914-0.594
			l2.235-5.02c3.942,8.44,12.336,13.837,21.732,13.837c13.233,0,24-10.767,24-24C49.881,25.351,49.433,24.904,48.881,24.904z"/>
		<path d="M51.214,10.172c-0.503-0.227-1.096,0.002-1.319,0.507l-2.266,5.089C43.693,7.306,35.305,1.904,25.881,1.904
			c-13.233,0-24,10.767-24,24c0,0.553,0.447,1,1,1s1-0.447,1-1c0-12.131,9.869-22,22-22c8.6,0,16.26,4.906,19.888,12.601
			l-5.115-2.278c-0.507-0.229-1.097,0.002-1.32,0.506c-0.225,0.505,0.002,1.096,0.506,1.32l7.308,3.254
			c0.13,0.058,0.269,0.087,0.407,0.087c0.121,0,0.243-0.022,0.358-0.066c0.248-0.095,0.447-0.284,0.555-0.527l3.254-7.309
			C51.945,10.988,51.719,10.397,51.214,10.172z"/>
		<path d="M35.881,25.904c0-5.514-4.486-10-10-10s-10,4.486-10,10s4.486,10,10,10S35.881,31.417,35.881,25.904z M17.881,25.904
			c0-4.411,3.589-8,8-8s8,3.589,8,8s-3.589,8-8,8S17.881,30.315,17.881,25.904z"/>
		<path d="M26.591,32.614c0.19-0.19,0.29-0.44,0.29-0.71c0-0.13-0.03-0.26-0.08-0.38s-0.12-0.23-0.21-0.33
			c-0.24-0.23-0.58-0.34-0.91-0.271c-0.06,0.011-0.12,0.03-0.18,0.06c-0.06,0.02-0.12,0.05-0.181,0.09
			c-0.05,0.03-0.1,0.08-0.149,0.12c-0.09,0.1-0.16,0.21-0.21,0.33s-0.08,0.25-0.08,0.38c0,0.27,0.1,0.52,0.29,0.71
			c0.19,0.189,0.44,0.29,0.71,0.29C26.15,32.904,26.4,32.803,26.591,32.614z"/>
		<path d="M25.881,29.904c0.553,0,1-0.447,1-1v-8c0-0.553-0.447-1-1-1s-1,0.447-1,1v8C24.881,29.456,25.328,29.904,25.881,29.904z"
			/>
	</g>
</g>
<g>
</g>
<g>
</g>
<g>
</g>
<g>
</g>
<g>
</g>
<g>
</g>
<g>
</g>
<g>
</g>
<g>
</g>
<g>
</g>
<g>
</g>
<g>
</g>
<g>
</g>
<g>
</g>
<g>
</g>
</svg>
