<?xml version="1.0" encoding="iso-8859-1"?>
<!-- Generator: Adobe Illustrator 19.0.0, SVG Export Plug-In . SVG Version: 6.00 Build 0)  -->
<svg version="1.1" id="Layer_1" xmlns="http://www.w3.org/2000/svg" xmlns:xlink="http://www.w3.org/1999/xlink" x="0px" y="0px"
	 viewBox="0 0 460 460" style="enable-background:new 0 0 460 460;" xml:space="preserve">
<g id="XMLID_1523_">
	<g id="Sheet_2_">
		<path id="XMLID_2217_" style="fill:#F2F2F2;" d="M354.688,7.322l67.99,67.99C427.366,80.001,430,86.359,430,92.99V420
			c0,22.091-17.909,40-40,40H70c-22.091,0-40-17.909-40-40V40C30,17.909,47.909,0,70,0h267.01
			C343.641,0,349.999,2.634,354.688,7.322z"/>
		<path id="XMLID_2215_" style="fill:#D2D6D5;" d="M350,120h80v300c0,22.091-17.909,40-40,40H70c-22.092,0-40-17.909-40-40V40
			C30,17.909,47.908,0,70,0h240v80C310,102.091,327.908,120,350,120z"/>
		<path id="XMLID_2213_" style="fill:#AAAFAD;" d="M350,120h80v30l-70.298-17.575C354,131,350,125.877,350,120z"/>
	</g>
	<g id="Text_1_">
		<path id="XMLID_1201_" style="fill:#AAAFAD;" d="M180,60H90c-5.523,0-10-4.477-10-10l0,0c0-5.523,4.477-10,10-10h90
			c5.523,0,10,4.477,10,10l0,0C190,55.523,185.523,60,180,60z"/>
		<path id="XMLID_1202_" style="fill:#AAAFAD;" d="M150,90L150,90c0-5.523-4.477-10-10-10H90c-5.523,0-10,4.477-10,10l0,0
			c0,5.523,4.477,10,10,10h50C145.523,100,150,95.523,150,90z"/>
		<path id="XMLID_1203_" style="fill:#AAAFAD;" d="M380,210L380,210c0-5.523-4.477-10-10-10H90c-5.523,0-10,4.477-10,10l0,0
			c0,5.523,4.477,10,10,10h280C375.523,220,380,215.523,380,210z"/>
		<path id="XMLID_1204_" style="fill:#AAAFAD;" d="M380,250L380,250c0-5.523-4.477-10-10-10H90c-5.523,0-10,4.477-10,10l0,0
			c0,5.523,4.477,10,10,10h280C375.523,260,380,255.523,380,250z"/>
		<path id="XMLID_1205_" style="fill:#AAAFAD;" d="M380,290L380,290c0-5.523-4.477-10-10-10H90c-5.523,0-10,4.477-10,10l0,0
			c0,5.523,4.477,10,10,10h280C375.523,300,380,295.523,380,290z"/>
		<path id="XMLID_1206_" style="fill:#AAAFAD;" d="M380,330L380,330c0-5.523-4.477-10-10-10H90c-5.523,0-10,4.477-10,10l0,0
			c0,5.523,4.477,10,10,10h280C375.523,340,380,335.523,380,330z"/>
		<path id="XMLID_1207_" style="fill:#AAAFAD;" d="M380,410L380,410c0-5.523-4.477-10-10-10h-50c-5.523,0-10,4.477-10,10l0,0
			c0,5.523,4.477,10,10,10h50C375.523,420,380,415.523,380,410z"/>
	</g>
	<g id="Check_mark">
		<path id="XMLID_1209_" style="fill:#AAC06A;" d="M348.883,288.025c0,65.657-53.226,118.883-118.883,118.883
			s-118.883-53.226-118.883-118.883S164.343,169.143,230,169.143S348.883,222.368,348.883,288.025z"/>
		<path id="XMLID_880_" style="fill:#515B28;" d="M240.456,332.272L240.456,332.272c-8.383,7.034-20.88,5.941-27.914-2.442
			l-50.944-60.713c-7.034-8.383-5.941-20.88,2.442-27.914l0,0c8.383-7.034,20.88-5.941,27.914,2.442l50.944,60.713
			C249.932,312.74,248.839,325.238,240.456,332.272z"/>
		<path id="XMLID_1210_" style="fill:#515B28;" d="M218.06,334.25L218.06,334.25c-9.477-5.471-12.724-17.589-7.252-27.066
			l79.255-137.274c5.471-9.477,17.589-12.724,27.066-7.252l0,0c9.477,5.471,12.724,17.589,7.252,27.066l-79.255,137.274
			C239.654,336.474,227.536,339.721,218.06,334.25z"/>
	</g>
</g>
<g>
</g>
<g>
</g>
<g>
</g>
<g>
</g>
<g>
</g>
<g>
</g>
<g>
</g>
<g>
</g>
<g>
</g>
<g>
</g>
<g>
</g>
<g>
</g>
<g>
</g>
<g>
</g>
<g>
</g>
</svg>
